<svg id="Capa_1" enable-background="new 0 0 512 512" height="512" viewBox="0 0 512 512" width="512" xmlns="http://www.w3.org/2000/svg"><g><g><g><g><g><g><g><circle cx="256" cy="256" fill="#f1cc30" r="256"/></g></g></g></g></g></g><path d="m512 256c0-7.476-.32-14.877-.948-22.19l-95.905-95.905-82.565 102.396-90.629-90.629-63.82 226.506 130.422 130.422c116.175-24.24 203.445-127.228 203.445-250.6z" fill="#e9a226"/><g><g><g><path d="m68.336 206.179c0-53.021 42.982-96.003 96.003-96.003 43.05 0 79.481 28.336 91.661 67.374 12.18-39.038 48.612-67.374 91.662-67.374 53.021 0 96.003 42.982 96.003 96.003 0 105.872-187.664 234.74-187.664 234.74s-187.665-135.148-187.665-234.74z" fill="#e06a24"/></g></g></g><g><g><g><path d="m256 440.919s187.664-128.868 187.664-234.74c0-53.021-42.982-96.003-96.003-96.003-43.05 0-79.482 28.336-91.662 67.374z" fill="#d24611"/></g></g></g><g><g><path d="m273.965 201.347v71.037h30.931v.272c-.26 1.364-1.306 5.925-4.233 10.269-5.145 7.637-13.892 11.35-26.742 11.35v40.107c52.254 0 69.299-38.441 71.01-58.768v-74.267z" fill="#e9ecf4"/></g><g><path d="m167.111 201.347v71.037h30.931v.272c-.26 1.364-1.306 5.925-4.233 10.269-5.145 7.637-13.892 11.35-26.742 11.35v40.107c52.254 0 69.299-38.441 71.01-58.768v-74.267z" fill="#fff"/></g></g></g></svg>